<svg xmlns="http://www.w3.org/2000/svg" xmlns:xlink="http://www.w3.org/1999/xlink" viewBox="0 0 30 30" fill="#110000">
  <path d="M19.5 21H17v-2h.889c.38 0 .728.216.896.556L19.5 21zM10.5 21H13v-2h-.889c-.38 0-.728.216-.896.556L10.5 21z" fill="#110000" />
  <path d="M21,25h2c0.552,0,1,0.448,1,1v1h3c0-7-8-5-9-8v-2c0.45-0.223,1.737-1.755,1.872-2.952c0.354-0.027,0.91-0.352,1.074-1.635c0.088-0.689-0.262-1.076-0.474-1.198c0,0,0.528-1.003,0.528-2.214c0-2.428-0.953-4.5-3-4.5c0,0-0.711-1.5-3-1.5c-4.242,0-6,2.721-6,6c0,1.104,0.528,2.214,0.528,2.214c-0.212,0.122-0.562,0.51-0.474,1.198c0.164,1.283,0.72,1.608,1.074,1.635C10.263,15.245,11.55,16.777,12,17v2c-1,3-9,1-9,8h10.305l1.195-3.916L13.361,21h1.612h1.665L15.5,23.084L16.695,27H20v-1C20,25.448,20.448,25,21,25z" fill="#110000" />
</svg>