<svg xmlns="http://www.w3.org/2000/svg" xmlns:xlink="http://www.w3.org/1999/xlink" x="0" y="0" viewBox="0 0 128 128"><path fill="#fff" d="M101.1 105.6C93.7 92.7 79.9 84 64 84h0c-15.9 0-29.7 8.7-37.1 21.6L27 109h74L101.1 105.6zM64 30A20 20 0 1 0 64 70 20 20 0 1 0 64 30z"/><path fill="#444b54" d="M64 73c-12.7 0-23-10.3-23-23s10.3-23 23-23 23 10.3 23 23S76.7 73 64 73zM64 33c-9.4 0-17 7.6-17 17s7.6 17 17 17 17-7.6 17-17S73.4 33 64 33zM26.9 108.6c-.5 0-1-.1-1.5-.4-1.4-.8-1.9-2.6-1.1-4.1C32.4 89.9 47.6 81 64 81c16.4 0 31.6 8.9 39.7 23.1.8 1.4.3 3.3-1.1 4.1-1.4.8-3.3.3-4.1-1.1C91.4 94.7 78.2 87 64 87c-14.2 0-27.4 7.7-34.5 20.1C29 108 28 108.6 26.9 108.6z"/></svg>