<svg xmlns="http://www.w3.org/2000/svg" xmlns:xlink="http://www.w3.org/1999/xlink" viewBox="0 0 80 80" fill="#110000">
  <path fill="none" stroke="#110000" stroke-width="2" d="M69,37h-2c0-1.105-0.895-2-2-2h-4c-1.105,0-2,0.895-2,2v18c0,1.105,0.895,2,2,2h4c1.105,0,2-0.895,2-2h2c1.657,0,3-1.343,3-3V40C72,38.343,70.657,37,69,37z" />
  <path d="M67 43A1 1 0 1 0 67 45 1 1 0 1 0 67 43zM67 39A1 1 0 1 0 67 41 1 1 0 1 0 67 39zM67 47A1 1 0 1 0 67 49 1 1 0 1 0 67 47zM67 51A1 1 0 1 0 67 53 1 1 0 1 0 67 51z" fill="#110000" />
  <path fill="none" stroke="#110000" stroke-width="2" d="M19,35h-4c-1.105,0-2,0.895-2,2h-2c-1.657,0-3,1.343-3,3v12c0,1.657,1.343,3,3,3h2c0,1.105,0.895,2,2,2h4c1.105,0,2-0.895,2-2V37C21,35.895,20.105,35,19,35z" />
  <path d="M13 51A1 1 0 1 0 13 53 1 1 0 1 0 13 51zM13 47A1 1 0 1 0 13 49 1 1 0 1 0 13 47zM13 43A1 1 0 1 0 13 45 1 1 0 1 0 13 43zM13 39A1 1 0 1 0 13 41 1 1 0 1 0 13 39z" fill="#110000" />
  <path fill="none" stroke="#110000" stroke-width="2" d="M41 72h-2c-1.657 0-3-1.343-3-3l0 0c0-1.657 1.343-3 3-3h2c1.657 0 3 1.343 3 3l0 0C44 70.657 42.657 72 41 72zM25.574 13.092l2.857 3.11c.646.703 1.695.845 2.51.348C33.582 14.938 36.678 14 40 14s6.418.938 9.06 2.55c.815.497 1.864.356 2.51-.348l2.857-3.11" />
  <path fill="none" stroke="#110000" stroke-width="2" d="M17 35v-4C17 18.297 27.297 8 40 8h0c12.703 0 23 10.297 23 23v4M44 69h9c5.523 0 10-4.477 10-10v-1.875" />
</svg>