<svg xmlns="http://www.w3.org/2000/svg" xmlns:xlink="http://www.w3.org/1999/xlink" width="26" height="26" viewBox="0 0 26 26" fill="#110000">
  <path fill="none" stroke="#110000" stroke-width="3" d="M21.5,9V7.917C21.5,4.229,19.669,1.5,16,1.5 s-5.5,2.757-5.5,6.417V9" />
  <path d="M23,10H9c-1.656,0-3,1.344-3,3v10c0,1.656,1.344,3,3,3h14c1.656,0,3-1.344,3-3V13C26,11.344,24.656,10,23,10 z M17,18.723V21c0,0.551-0.449,1-1,1s-1-0.449-1-1v-2.277c-0.596-0.347-1-0.984-1-1.723c0-1.104,0.896-2,2-2s2,0.896,2,2 C18,17.738,17.596,18.376,17,18.723z" fill="#110000" />
</svg>