<svg xmlns="http://www.w3.org/2000/svg" xmlns:xlink="http://www.w3.org/1999/xlink" viewBox="0 0 80 80" fill="#110000">
  <path d="M63,40h-3v-3c0-10.571-8.563-13.904-8.648-13.937l-0.594-0.219l-0.454,0.438C50.255,23.329,45.287,28,35,28c-2.458,0-6.213,0.732-9.378,2.786C21.944,33.173,20,36.705,20,41v0.323C19.432,41.032,19.213,41,19,41c-2.206,0-4,1.794-4,4c0,0.826,0.34,2.02,0.64,3.073c0.148,0.521,0.352,1.233,0.36,1.427c0,1.93,1.57,3.5,3.5,3.5h0.618c0.869,8.8,7.347,15.94,16.08,17.621C37.279,71.512,38.617,72,40,72s2.721-0.488,3.802-1.379c5.458-1.05,10.035-4.233,12.913-8.621h-2.468c-2.648,3.436-6.524,5.892-11.07,6.703l-0.283,0.05l-0.214,0.194c-1.494,1.358-3.865,1.358-5.359,0l-0.214-0.194l-0.283-0.05c-8.265-1.474-14.342-8.364-14.779-16.755L21.994,51H19.5c-0.827,0-1.5-0.673-1.5-1.5c0-0.42-0.158-0.995-0.437-1.975C17.325,46.69,17,45.547,17,45c0-1.063,0.834-1.935,1.882-1.997c0.15,0.065,0.564,0.271,1.593,0.906L22,44.851V41c0-8.979,9.627-11,13-11c9.315,0,14.562-3.533,16.169-4.825C52.845,26.022,58,29.257,58,37v5h5c1.103,0,2,0.897,2,2v5c0,1.103-0.897,2-2,2h-4.994l-0.05,0.948c-0.132,2.524-0.782,4.907-1.84,7.052h2.206c0.81-1.87,1.35-3.885,1.559-6H63c2.206,0,4-1.794,4-4v-5C67,41.794,65.206,40,63,40z" fill="#110000" />
  <path fill="none" stroke="#110000" stroke-width="2" d="M62,41c0,0,1-7,1-12.265C63,18.345,56.884,16,52,16c0,0-3.382-7-13.15-7C25,9,13,23,13,23s5,3,5,10.416C18,39,18,42,18,42" />
  <path d="M49 43A2 2 0 1 0 49 47 2 2 0 1 0 49 43zM31 43A2 2 0 1 0 31 47 2 2 0 1 0 31 43z" fill="#110000" />
  <path fill="none" stroke="#110000" stroke-width="2" d="M43 62h14c3.314 0 6-2.686 6-6v-4M59 51L59 41M39 64c-1.105 0-2-.895-2-2s.895-2 2-2h2c1.105 0 2 .895 2 2s-.895 2-2 2H39z" />
</svg>